<svg xmlns="http://www.w3.org/2000/svg" xml:space="preserve" width="800" height="277.42499" viewBox="0 0 800 277.42499"><defs><clipPath id="a" clipPathUnits="userSpaceOnUse"><path d="M0 208.14h600.201V0H0Z"/></clipPath></defs><g clip-path="url(#a)" style="fill:#c48fc2;fill-opacity:1" transform="matrix(1.33289 0 0 -1.33289 0 277.425)"><g style="fill:#c48fc2;fill-opacity:1"><path d="M0 0v-90.792h42.312c12.234-.151 24.695.492 36.472 4.093 8.829 3.141 17.159 8.485 22.655 16.286 5.378 7.537 7.574 16.97 7.272 26.136a41.713 41.713 0 0 1-9.396 24.96C92.614-11.021 82.877-5.643 72.726-2.838 65-.571 56.893-.155 48.903-.079 32.576.11 16.29-.042.004 0Zm99.311 15.111C92.723 9.694 84.843 6.059 76.74 3.598 82.685 1.667 88.517-.68 93.785-4.055a50.785 50.785 0 0 0 15.3-14.62v44.463c-2.725-3.976-5.983-7.65-9.774-10.681M0 97.912C-.038 67.684 0 37.459 0 7.234c16.29-.038 32.576 0 48.862 0 6.512.151 13.066.34 19.43 1.701 10.719 2.275 21.211 7.011 28.785 15.118 6.932 7.083 11.063 16.819 11.554 26.702.492 9.43-1.742 19.2-7.309 26.929-5.568 7.801-13.977 13.18-22.916 16.29-10.722 3.179-21.97 4.09-33.071 3.938-15.11-.037-30.221-.037-45.335 0m-9.241 7.155h63.859c9.468-.718 19.011-1.629 28.105-4.509 10.265-3.787 19.921-10.038 26.4-19.015.037 7.843-.076 15.685.075 23.483h11.781c34.847-63.33 69.581-126.732 104.39-190.099v152.11c.076 12.651-.117 25.338.076 37.989h9.048V4.388c37.803 33.562 75.564 67.121 113.292 100.683h12.347C322.367 71.316 284.606 37.606 246.879 3.855c37.727-33.785 75.526-67.457 113.253-101.242-3.787-.076-7.578-.038-11.327-.038-1.323-.113-2.117 1.134-3.031 1.852-24.541 21.819-49.085 43.597-73.591 65.416-12.537 11.097-24.964 22.349-37.614 33.332-.076-33.562 0-67.117-.038-100.679-3.712 0-7.385-.076-11.097.038-10.945 19.887-22.004 39.696-32.991 59.542-24.125 43.446-48.216 86.967-72.378 130.447-.038-63.364 0-126.697 0-190.061-2.96 0-5.949-.038-8.905 0-.038 7.687 0 15.375 0 23.066-6.516-9.014-16.252-15.303-26.589-19.052-14.581-4.392-29.96-4.623-45.033-4.472H-9.165c-.076 67.692-.076 135.376-.076 203.067" style="fill:#c48fc2;fill-opacity:1;fill-rule:nonzero;stroke:none" transform="translate(9.241 100.65)"/></g><g style="fill:#c48fc2;fill-opacity:1"><path d="M0 0a53.478 53.478 0 0 1-14.268-3.118c-12.453-4.536-23.017-14.037-28.803-25.965-8.331-16.766-7.057-37.962 3.549-53.462 9.135-13.735 25.096-22.465 41.563-22.964 16.388-.847 33.044 6.425 43.302 19.309 10.681 13.002 14.343 31.234 9.948 47.426-3.666 14.116-13.573 26.502-26.567 33.082C19.971-1.119 9.868.771 0 0m-88.373 67.929c-28.762-43.657-57.645-87.276-86.373-130.934h95.319c0 48.08.038 96.163-.037 144.242-3.164-4.309-5.904-8.882-8.909-13.308M-.884 87.507c-11.683-1.383-22.598-8.231-28.8-18.27-7.987-12.657-8.179-29.888-.197-42.618A39.447 39.447 0 0 1-9.139 10.118c8.062-2.771 16.97-2.963 25.142-.541a39.58 39.58 0 0 1 20.398 14.117c9.985 13.001 10.605 32.198 1.697 45.887a38.872 38.872 0 0 1-15.27 13.848c-7.211 3.772-15.654 5.118-23.712 4.082m-1.505 7.072c15.58 2.271 32.119-3.459 42.724-15.156a46.526 46.526 0 0 0 10.836-19.805c2.196-8.504 2.003-17.696-.813-26.041C46.042 20.693 36.091 9.808 23.675 4.346c7.752-2.615 15.08-6.614 21.169-12.037 13.036-11.35 20.67-28.581 20.553-45.891-.461-14.272-5.937-28.347-15.42-39.005-10.258-11.728-25.221-19.155-40.759-20.27-15.08-1.27-30.576 3.27-42.493 12.654-9.638 7.54-16.849 18.119-20.591 29.771h-17.386c-.037-13.001 0-26.04-.037-39.042-2.703-.038-5.405.038-8.1-.038-.193 13.002-.075 26.003-.075 39.043-33.665.151-67.363 0-101.027.075.155 4.502-.265 9.12.193 13.542 31.327 47.48 62.635 94.971 93.928 142.473 1.35 1.928 2.51 4.041 3.969 5.885 3.666-.075 7.37-.075 11.032 0 .189-7.075.038-14.154.076-21.271V-63.046h15.617c-.733 4.463-1.349 8.965-.964 13.504.964 15.042 7.635 29.692 18.622 40.04A59.85 59.85 0 0 0-16.346 3.806c.408.101.764.349 1.001.695-14.071 6.271-24.945 19.541-27.878 34.772-1.965 9.695-.502 19.964 3.973 28.77 7.018 14.116 21.244 24.389 36.861 26.543" style="fill:#c48fc2;fill-opacity:1;fill-rule:nonzero;stroke:none" transform="translate(534.803 113.066)"/></g></g></svg>