<svg xmlns="http://www.w3.org/2000/svg" id="Group_3" width="800" height="260.94699" version="1.1" viewBox="0 0 800.00003 260.94699"><defs id="defs7925"><style>.cls-1{fill:#fff}</style></defs><g id="Group_1" style="fill:#3bc2b1;fill-opacity:1" transform="matrix(2.1745 0 0 2.1745 158.562 0)"><path id="Path_2" d="M217.141 52.318c9.865-4.245 16.912-14.25 16.912-25.072C234.036 12.057 221.526 0 206.163 0c-15.346 0-27.873 12.684-27.873 27.107v.139c0 10.822 7.047 20.826 16.912 25.072a34.945 34.945 0 0 0-24.271 32.9c.47 19.435 15.816 34.78 35.25 34.78a34.634 34.634 0 0 0 10.961-67.682zm-34.154-24.9v-.174a23.175 23.175 0 1 1 46.351 0 23.177 23.177 0 0 1-46.351.174zm23.175 88.334a30.258 30.258 0 0 1-30.535-30.4V85.2a30.535 30.535 0 1 1 30.535 30.552z" class="cls-1" style="fill:#3bc2b1;fill-opacity:1" transform="translate(53.55)"/><path id="Path_3" d="M108.9 68.273H77.021v4.245h31.614c-2.244 28.691-12.649 43.236-31.057 43.236-20.913 0-31.527-18.756-31.527-55.763S56.664 4.228 77.578 4.228c13.71 0 22.966 8.108 27.734 24.08h4.245C104.79 11.327 94.977 0 77.578 0 50.749 0 41.91 26.864 41.91 59.991c0 33.127 8.856 59.991 35.685 59.991 23.349 0 33.075-20.357 35.215-47.482.1-1.392.174-2.819.244-4.245H108.9Z" class="cls-1" style="fill:#3bc2b1;fill-opacity:1" transform="translate(-41.91)"/></g><path id="Path_4" d="M615.252 4.843h-13.917L484.954 181.225V5.145H471.71l-66.7 221.442L338.27 5.145h-13.469v251.254h9.677V27.392l70.484 228.974 70.23-228.293v228.29h9.721v-48.958h120.122v48.957h10.176v-48.957h25.5v-9.156h-25.506V4.843Zm-10.177 193.406h-119.67L605.076 17.1Z" class="cls-1" style="stroke-width:2.17449;fill:#3bc2b1;fill-opacity:1"/><g id="Group_2" style="fill:#3bc2b1;fill-opacity:1" transform="scale(2.1745)"><path id="Path_5" d="M36.416 115.755C15.067 115.755 4.245 97 4.245 59.991S15.067 4.228 36.416 4.228c13.989 0 23.436 8.108 28.291 24.08h4.332C64.167 11.327 54.163 0 36.416 0 9.03 0 0 26.864 0 59.991c0 33.127 9.03 59.991 36.416 59.991 17.764 0 27.8-11.309 32.658-28.308h-4.35c-4.854 15.99-14.324 24.081-28.308 24.081Z" class="cls-1" style="fill:#3bc2b1;fill-opacity:1"/></g></svg>